<svg width="827" height="1051" viewBox="0 0 827 1051" fill="none" xmlns="http://www.w3.org/2000/svg">
<path d="M74 0C125.81 0 177.62 0 231 0C231 24.75 231 49.5 231 75C255.75 75 280.5 75 306 75C306 99.42 306 123.84 306 149C330.75 149 355.5 149 381 149C381 173.75 381 198.5 381 224C503.43 224 625.86 224 752 224C752 300.23 752 376.46 752 455C703.49 455 654.98 455 605 455C605 501.53 605 548.06 605 596C653.84 596 702.68 596 753 596C753 620.75 753 645.5 753 671C777.42 671 801.84 671 827 671C827 771.65 827 872.3 827 976C802.58 976 778.16 976 753 976C753 1000.75 753 1025.5 753 1051C725.94 1051 698.88 1051 671 1051C671 977.08 671 903.16 671 827C624.47 827 577.94 827 530 827C530 851.75 530 876.5 530 902C404.6 902 279.2 902 150 902C148.761 899.521 148.876 897.889 148.877 895.116C148.875 894.077 148.873 893.038 148.871 891.968C148.874 890.819 148.877 889.669 148.88 888.484C148.878 886.662 148.878 886.662 148.877 884.804C148.876 881.422 148.879 878.04 148.884 874.659C148.888 871.016 148.887 867.373 148.886 863.73C148.886 857.415 148.889 851.1 148.894 844.785C148.902 835.655 148.905 826.524 148.906 817.394C148.908 802.582 148.915 787.769 148.925 772.957C148.934 758.565 148.941 744.174 148.945 729.782C148.945 728.896 148.946 728.009 148.946 727.096C148.947 722.648 148.948 718.2 148.95 713.752C148.96 676.835 148.978 639.917 149 603C124.58 603 100.16 603 75 603C75 554.16 75 505.32 75 455C50.25 455 25.5 455 0 455C0 403.19 0 351.38 0 298C24.75 298 49.5 298 75 298C75 275.89 75 253.78 75 231C50.25 231 25.5 231 0 231C0 179.52 0 128.04 0 75C24.42 75 48.84 75 74 75C74 50.25 74 25.5 74 0ZM82 8C82 32.42 82 56.84 82 82C57.58 82 33.16 82 8 82C8 104.11 8 126.22 8 149C32.42 149 56.84 149 82 149C82 151.64 82 154.28 82 157C57.58 157 33.16 157 8 157C8 179.11 8 201.22 8 224C32.42 224 56.84 224 82 224C82 251.06 82 278.12 82 306C57.25 306 32.5 306 7 306C7 328.11 7 350.22 7 373C31.75 373 56.5 373 82 373C82 375.31 82 377.62 82 380C57.25 380 32.5 380 7 380C7 402.11 7 424.22 7 447C31.75 447 56.5 447 82 447C82 471.75 82 496.5 82 522C106.75 522 131.5 522 157 522C157 524.31 157 526.62 157 529C155.613 528.997 155.613 528.997 154.197 528.993C145.5 528.973 136.804 528.958 128.107 528.948C123.635 528.943 119.163 528.936 114.692 528.925C110.38 528.914 106.068 528.908 101.756 528.905C100.108 528.903 98.4589 528.9 96.8102 528.894C94.509 528.887 92.2078 528.886 89.9065 528.886C87.9379 528.883 87.9379 528.883 85.9296 528.88C83.11 528.664 83.11 528.664 82 530C81.9059 532.056 81.8826 534.114 81.8865 536.172C81.8863 537.154 81.8863 537.154 81.8861 538.155C81.8869 540.282 81.8945 542.408 81.9023 544.535C81.9034 545.832 81.9044 547.128 81.9054 548.464C81.9106 553.33 81.9246 558.196 81.9375 563.062C81.9581 573.932 81.9787 584.801 82 596C106.75 596 131.5 596 157 596C157 620.75 157 645.5 157 671C181.42 671 205.84 671 231 671C231 695.42 231 719.84 231 745C255.75 745 280.5 745 306 745C306 747.64 306 750.28 306 753C278.94 753 251.88 753 224 753C224 728.25 224 703.5 224 678C201.89 678 179.78 678 157 678C157 749.28 157 820.56 157 894C179.11 894 201.22 894 224 894C224 869.58 224 845.16 224 820C226.31 820 228.62 820 231 820C231 844.75 231 869.5 231 895C252.976 895.03 252.976 895.03 274.952 895.031C275.773 895.031 276.594 895.03 277.439 895.03C302.587 895.009 327.735 894.893 352.883 894.781C354.116 894.776 355.35 894.77 356.621 894.765C371.884 894.697 387.147 894.626 402.41 894.555C415.596 894.493 428.782 894.433 441.969 894.373C468.979 894.251 495.99 894.126 523 894C523 869.58 523 845.16 523 820C547.42 820 571.84 820 597 820C597 795.25 597 770.5 597 745C599.31 745 601.62 745 604 745C604 769.75 604 794.5 604 820C628.42 820 652.84 820 678 820C678 893.59 678 967.18 678 1043C700.11 1043 722.22 1043 745 1043C745.33 1018.91 745.66 994.82 746 970C770.42 969.67 794.84 969.34 820 969C820 872.97 820 776.94 820 678C795.25 678 770.5 678 745 678C745 653.58 745 629.16 745 604C696.16 604 647.32 604 597 604C597 552.19 597 500.38 597 447C645.84 447 694.68 447 745 447C745 375.72 745 304.44 745 231C698.47 231 651.94 231 604 231C604 255.75 604 280.5 604 306C579.58 306 555.16 306 530 306C530 328.11 530 350.22 530 373C554.42 373 578.84 373 604 373C604 375.31 604 377.62 604 380C577.27 380 550.54 380 523 380C523.062 343.5 523.062 343.5 523.09 332.014C523.093 328.589 523.093 328.589 523.095 325.164C523.097 323.65 523.1 322.135 523.106 320.62C523.113 318.314 523.114 316.008 523.114 313.701C523.117 311.756 523.117 311.756 523.12 309.771C522.995 305.832 522.489 301.911 522 298C546.75 298 571.5 298 597 298C597 275.89 597 253.78 597 231C498.66 231 400.32 231 299 231C299 228.69 299 226.38 299 224C323.75 224 348.5 224 374 224C374 201.89 374 179.78 374 157C348.92 157 323.84 157 298 157C298 132.25 298 107.5 298 82C273.25 82 248.5 82 223 82C223 57.58 223 33.16 223 8C176.47 8 129.94 8 82 8Z" fill="#074139"/>
<path d="M149 224C151.31 224 153.62 224 156 224C157 225 157 225 157.12 227.93C157.117 229.898 157.117 229.898 157.114 231.906C157.114 232.64 157.114 233.374 157.114 234.13C157.113 236.515 157.106 238.9 157.098 241.285C157.096 242.754 157.095 244.222 157.095 245.69C157.089 251.148 157.075 256.605 157.062 262.062C157.042 274.252 157.021 286.441 157 299C181.42 299 205.84 299 231 299C231 326.06 231 353.12 231 381C206.58 381 182.16 381 157 381C157 405.75 157 430.5 157 456C154.69 456 152.38 456 150 456C150 428.94 150 401.88 150 374C174.42 374 198.84 374 224 374C224 351.89 224 329.78 224 307C199.25 307 174.5 307 149 307C149 279.61 149 252.22 149 224Z" fill="#074139"/>
<path d="M298 597C349.81 597 401.62 597 455 597C455 624.06 455 651.12 455 679C452.36 679 449.72 679 447 679C447 654.58 447 630.16 447 605C400.47 605 353.94 605 306 605C306 629.42 306 653.84 306 679C303.36 679 300.72 679 298 679C298 651.94 298 624.88 298 597Z" fill="#074139"/>
<path d="M298 374C300.64 374 303.28 374 306 374C306 398.42 306 422.84 306 448C352.86 448 399.72 448 448 448C448 423.58 448 399.16 448 374C450.31 374 452.62 374 455 374C455 401.06 455 428.12 455 456C415.919 456.04 415.919 456.04 399.596 456.049C388.306 456.055 377.016 456.062 365.726 456.075C357.505 456.085 349.284 456.092 341.063 456.094C336.707 456.095 332.352 456.098 327.996 456.106C323.901 456.112 319.806 456.115 315.712 456.113C314.204 456.113 312.697 456.115 311.19 456.119C309.141 456.124 307.091 456.122 305.042 456.12C303.893 456.121 302.743 456.122 301.559 456.123C299 456 299 456 298 455C297.905 452.475 297.874 449.977 297.886 447.451C297.886 446.661 297.886 445.871 297.886 445.056C297.887 442.432 297.894 439.808 297.902 437.184C297.904 435.369 297.905 433.554 297.906 431.74C297.91 426.954 297.92 422.168 297.931 417.383C297.941 412.503 297.946 407.624 297.951 402.744C297.962 393.163 297.979 383.581 298 374Z" fill="#074139"/>
<path d="M671 672C673.31 672 675.62 672 678 672C678 696.42 678 720.84 678 746C702.75 746 727.5 746 753 746C753.04 785.081 753.04 785.081 753.049 801.404C753.055 812.694 753.062 823.984 753.075 835.274C753.085 843.495 753.092 851.716 753.094 859.937C753.095 864.292 753.098 868.648 753.106 873.004C753.112 877.099 753.115 881.193 753.113 885.288C753.113 886.796 753.115 888.303 753.119 889.81C753.124 891.859 753.122 893.908 753.12 895.957C753.121 897.107 753.122 898.256 753.123 899.441C753 902 753 902 752 903C749.69 903 747.38 903 745 903C745 853.5 745 804 745 753C720.58 753 696.16 753 671 753C671 726.27 671 699.54 671 672Z" fill="#074139"/>
<path d="M374 671C376.31 671 378.62 671 381 671C381 720.5 381 770 381 821C405.42 821 429.84 821 455 821C455 823.31 455 825.62 455 828C403.52 828 352.04 828 299 828C299 825.69 299 823.38 299 821C323.42 820.67 347.84 820.34 373 820C373.33 770.83 373.66 721.66 374 671Z" fill="#074139"/>
<path d="M149 75C151.64 75 154.28 75 157 75C157 100.08 157 125.16 157 151C181.42 151 205.84 151 231 151C231 178.06 231 205.12 231 233C228.36 233 225.72 233 223 233C223 208.25 223 183.5 223 158C198.58 158 174.16 158 149 158C149 130.61 149 103.22 149 75Z" fill="#074139"/>
<path d="M522 672C549.06 672 576.12 672 604 672C604 674.31 604 676.62 604 679C579.58 679 555.16 679 530 679C530 703.42 530 727.84 530 753C502.94 753 475.88 753 448 753C448 751.02 448 749.04 448 747C472.42 746.67 496.84 746.34 522 746C522 721.58 522 697.16 522 672Z" fill="#074139"/>
<path d="M223 448C225.64 448 228.28 448 231 448C231 499.81 231 551.62 231 605C228.36 605 225.72 605 223 605C223 553.19 223 501.38 223 448Z" fill="#074139"/>
<path d="M522 448C524.64 448 527.28 448 530 448C530 499.81 530 551.62 530 605C527.36 605 524.72 605 522 605C522 553.19 522 501.38 522 448Z" fill="#074139"/>
<path d="M298 523C349.81 523 401.62 523 455 523C455 525.31 455 527.62 455 530C403.19 530 351.38 530 298 530C298 527.69 298 525.38 298 523Z" fill="#074139"/>
<path d="M373 299C375.64 299 378.28 299 381 299C381 326.39 381 353.78 381 382C378.36 382 375.72 382 373 382C373 354.61 373 327.22 373 299Z" fill="#074139"/>
<path d="M671 300C673.31 300 675.62 300 678 300C678 326.73 678 353.46 678 381C675.69 381 673.38 381 671 381C671 354.27 671 327.54 671 300Z" fill="#074139"/>
<path d="M300 603C304.875 604.875 304.875 604.875 306 606C306.094 608.27 306.117 610.543 306.114 612.815C306.114 613.527 306.114 614.239 306.114 614.973C306.113 617.337 306.105 619.702 306.098 622.066C306.096 623.702 306.094 625.337 306.093 626.972C306.09 631.284 306.08 635.597 306.069 639.909C306.058 644.306 306.054 648.703 306.049 653.1C306.038 661.733 306.021 670.367 306 679C303.36 679 300.72 679 298 679C298.12 672.195 298.245 665.389 298.372 658.584C298.415 656.281 298.457 653.978 298.497 651.676C298.785 635.439 299.279 619.223 300 603Z" fill="#074139"/>
<path d="M298 374C300.64 374 303.28 374 306 374C306 400.4 306 426.8 306 454C305.01 454 304.02 454 303 454C303 453.34 303 452.68 303 452C301.68 451.67 300.36 451.34 299 451C298.67 425.59 298.34 400.18 298 374Z" fill="#074139"/>
<path d="M223 151C225.31 151 227.62 151 230 151C230 177.73 230 204.46 230 232C228.02 232 226.04 232 224 232C223.67 205.27 223.34 178.54 223 151Z" fill="#074139"/>
</svg>
