<svg width="827" height="1052" viewBox="0 0 827 1052" fill="none" xmlns="http://www.w3.org/2000/svg">
<g clip-path="url(#clip0_3025_1631)">
<path d="M74 0C125.81 0 177.62 0 231 0C231 24.75 231 49.5 231 75C255.75 75 280.5 75 306 75C306 99.42 306 123.84 306 149C330.75 149 355.5 149 381 149C381 173.75 381 198.5 381 224C503.43 224 625.86 224 752 224C752 300.23 752 376.46 752 455C703.49 455 654.98 455 605 455C605 501.53 605 548.06 605 596C653.84 596 702.68 596 753 596C753 620.75 753 645.5 753 671C777.42 671 801.84 671 827 671C827 771.65 827 872.3 827 976C802.58 976 778.16 976 753 976C753 1000.75 753 1025.5 753 1051C725.94 1051 698.88 1051 671 1051C671 977.08 671 903.16 671 827C624.47 827 577.94 827 530 827C530 851.75 530 876.5 530 902C404.6 902 279.2 902 150 902C148.761 899.521 148.876 897.889 148.877 895.116C148.875 894.077 148.873 893.038 148.871 891.968C148.874 890.819 148.877 889.669 148.88 888.484C148.878 886.662 148.878 886.662 148.877 884.804C148.876 881.422 148.879 878.04 148.884 874.659C148.888 871.016 148.887 867.373 148.886 863.73C148.886 857.415 148.889 851.1 148.894 844.785C148.902 835.655 148.905 826.524 148.906 817.394C148.908 802.582 148.915 787.769 148.925 772.957C148.934 758.565 148.941 744.174 148.945 729.782C148.945 728.896 148.946 728.009 148.946 727.096C148.947 722.648 148.948 718.2 148.95 713.752C148.96 676.835 148.978 639.917 149 603C124.58 603 100.16 603 75 603C75 554.16 75 505.32 75 455C50.25 455 25.5 455 0 455C0 403.19 0 351.38 0 298C24.75 298 49.5 298 75 298C75 275.89 75 253.78 75 231C50.25 231 25.5 231 0 231C0 179.52 0 128.04 0 75C24.42 75 48.84 75 74 75C74 50.25 74 25.5 74 0Z" fill="#83D29A"/>
<path d="M74 0.5C125.81 0.5 177.62 0.5 231 0.5C231 25.25 231 50 231 75.5C255.75 75.5 280.5 75.5 306 75.5C306 99.92 306 124.34 306 149.5C330.75 149.5 355.5 149.5 381 149.5C381 174.25 381 199 381 224.5C503.43 224.5 625.86 224.5 752 224.5C752 300.73 752 376.96 752 455.5C703.49 455.5 654.98 455.5 605 455.5C605 502.03 605 548.56 605 596.5C653.84 596.5 702.68 596.5 753 596.5C753 621.25 753 646 753 671.5C777.42 671.5 801.84 671.5 827 671.5C827 772.15 827 872.8 827 976.5C802.58 976.5 778.16 976.5 753 976.5C753 1001.25 753 1026 753 1051.5C725.94 1051.5 698.88 1051.5 671 1051.5C671 977.58 671 903.66 671 827.5C624.47 827.5 577.94 827.5 530 827.5C530 852.25 530 877 530 902.5C404.6 902.5 279.2 902.5 150 902.5C148.761 900.021 148.876 898.389 148.877 895.616C148.875 894.577 148.873 893.538 148.871 892.468C148.874 891.319 148.877 890.169 148.88 888.984C148.878 887.162 148.878 887.162 148.877 885.304C148.876 881.922 148.879 878.54 148.884 875.159C148.888 871.516 148.887 867.873 148.886 864.23C148.886 857.915 148.889 851.6 148.894 845.285C148.902 836.155 148.905 827.024 148.906 817.894C148.908 803.082 148.915 788.269 148.925 773.457C148.934 759.065 148.941 744.674 148.945 730.282C148.945 729.396 148.946 728.509 148.946 727.596C148.947 723.148 148.948 718.7 148.95 714.252C148.96 677.335 148.978 640.417 149 603.5C124.58 603.5 100.16 603.5 75 603.5C75 554.66 75 505.82 75 455.5C50.25 455.5 25.5 455.5 0 455.5C0 403.69 0 351.88 0 298.5C24.75 298.5 49.5 298.5 75 298.5C75 276.39 75 254.28 75 231.5C50.25 231.5 25.5 231.5 0 231.5C0 180.02 0 128.54 0 75.5C24.42 75.5 48.84 75.5 74 75.5C74 50.75 74 26 74 0.5ZM82 8.5C82 32.92 82 57.34 82 82.5C57.58 82.5 33.16 82.5 8 82.5C8 104.61 8 126.72 8 149.5C32.42 149.5 56.84 149.5 82 149.5C82 152.14 82 154.78 82 157.5C57.58 157.5 33.16 157.5 8 157.5C8 179.61 8 201.72 8 224.5C32.42 224.5 56.84 224.5 82 224.5C82 251.56 82 278.62 82 306.5C57.25 306.5 32.5 306.5 7 306.5C7 328.61 7 350.72 7 373.5C31.75 373.5 56.5 373.5 82 373.5C82 375.81 82 378.12 82 380.5C57.25 380.5 32.5 380.5 7 380.5C7 402.61 7 424.72 7 447.5C31.75 447.5 56.5 447.5 82 447.5C82 472.25 82 497 82 522.5C106.75 522.5 131.5 522.5 157 522.5C157 524.81 157 527.12 157 529.5C155.613 529.497 155.613 529.497 154.197 529.493C145.5 529.473 136.804 529.458 128.107 529.448C123.635 529.443 119.163 529.436 114.692 529.425C110.38 529.414 106.068 529.408 101.756 529.405C100.108 529.403 98.4589 529.4 96.8102 529.394C94.509 529.387 92.2078 529.386 89.9065 529.386C87.9379 529.383 87.9379 529.383 85.9296 529.38C83.11 529.164 83.11 529.164 82 530.5C81.9059 532.556 81.8826 534.614 81.8865 536.672C81.8863 537.654 81.8863 537.654 81.8861 538.655C81.8869 540.782 81.8945 542.908 81.9023 545.035C81.9034 546.332 81.9044 547.628 81.9054 548.964C81.9106 553.83 81.9246 558.696 81.9375 563.562C81.9581 574.432 81.9787 585.301 82 596.5C106.75 596.5 131.5 596.5 157 596.5C157 621.25 157 646 157 671.5C181.42 671.5 205.84 671.5 231 671.5C231 695.92 231 720.34 231 745.5C255.75 745.5 280.5 745.5 306 745.5C306 748.14 306 750.78 306 753.5C278.94 753.5 251.88 753.5 224 753.5C224 728.75 224 704 224 678.5C201.89 678.5 179.78 678.5 157 678.5C157 749.78 157 821.06 157 894.5C179.11 894.5 201.22 894.5 224 894.5C224 870.08 224 845.66 224 820.5C226.31 820.5 228.62 820.5 231 820.5C231 845.25 231 870 231 895.5C252.976 895.53 252.976 895.53 274.952 895.531C275.773 895.531 276.594 895.53 277.439 895.53C302.587 895.509 327.735 895.393 352.883 895.281C354.116 895.276 355.35 895.27 356.621 895.265C371.884 895.197 387.147 895.126 402.41 895.055C415.596 894.993 428.782 894.933 441.969 894.873C468.979 894.751 495.99 894.626 523 894.5C523 870.08 523 845.66 523 820.5C547.42 820.5 571.84 820.5 597 820.5C597 795.75 597 771 597 745.5C599.31 745.5 601.62 745.5 604 745.5C604 770.25 604 795 604 820.5C628.42 820.5 652.84 820.5 678 820.5C678 894.09 678 967.68 678 1043.5C700.11 1043.5 722.22 1043.5 745 1043.5C745.33 1019.41 745.66 995.32 746 970.5C770.42 970.17 794.84 969.84 820 969.5C820 873.47 820 777.44 820 678.5C795.25 678.5 770.5 678.5 745 678.5C745 654.08 745 629.66 745 604.5C696.16 604.5 647.32 604.5 597 604.5C597 552.69 597 500.88 597 447.5C645.84 447.5 694.68 447.5 745 447.5C745 376.22 745 304.94 745 231.5C698.47 231.5 651.94 231.5 604 231.5C604 256.25 604 281 604 306.5C579.58 306.5 555.16 306.5 530 306.5C530 328.61 530 350.72 530 373.5C554.42 373.5 578.84 373.5 604 373.5C604 375.81 604 378.12 604 380.5C577.27 380.5 550.54 380.5 523 380.5C523.062 344 523.062 344 523.09 332.514C523.093 329.089 523.093 329.089 523.095 325.664C523.097 324.15 523.1 322.635 523.106 321.12C523.113 318.814 523.114 316.508 523.114 314.201C523.117 312.256 523.117 312.256 523.12 310.271C522.995 306.332 522.489 302.411 522 298.5C546.75 298.5 571.5 298.5 597 298.5C597 276.39 597 254.28 597 231.5C498.66 231.5 400.32 231.5 299 231.5C299 229.19 299 226.88 299 224.5C323.75 224.5 348.5 224.5 374 224.5C374 202.39 374 180.28 374 157.5C348.92 157.5 323.84 157.5 298 157.5C298 132.75 298 108 298 82.5C273.25 82.5 248.5 82.5 223 82.5C223 58.08 223 33.66 223 8.5C176.47 8.5 129.94 8.5 82 8.5Z" fill="#074139"/>
<path d="M147 456.5C149.31 456.5 151.62 456.5 154 456.5C155 455.5 155 455.5 155.12 452.57C155.117 450.602 155.117 450.602 155.114 448.594C155.114 447.86 155.114 447.126 155.114 446.37C155.113 443.985 155.106 441.6 155.098 439.215C155.096 437.746 155.095 436.278 155.095 434.81C155.089 429.352 155.075 423.895 155.062 418.438C155.042 406.248 155.021 394.059 155 381.5C179.42 381.5 203.84 381.5 229 381.5C229 354.44 229 327.38 229 299.5C204.58 299.5 180.16 299.5 155 299.5C155 274.75 155 250 155 224.5C152.69 224.5 150.38 224.5 148 224.5C148 251.56 148 278.62 148 306.5C172.42 306.5 196.84 306.5 222 306.5C222 328.61 222 350.72 222 373.5C197.25 373.5 172.5 373.5 147 373.5C147 400.89 147 428.28 147 456.5Z" fill="#074139"/>
<path d="M298 679.5C349.81 679.5 401.62 679.5 455 679.5C455 652.44 455 625.38 455 597.5C452.36 597.5 449.72 597.5 447 597.5C447 621.92 447 646.34 447 671.5C400.47 671.5 353.94 671.5 306 671.5C306 647.08 306 622.66 306 597.5C303.36 597.5 300.72 597.5 298 597.5C298 624.56 298 651.62 298 679.5Z" fill="#074139"/>
<path d="M298 456.623C300.64 456.623 303.28 456.623 306 456.623C306 432.203 306 407.783 306 382.623C352.86 382.623 399.72 382.623 448 382.623C448 407.043 448 431.463 448 456.623C450.31 456.623 452.62 456.623 455 456.623C455 429.563 455 402.503 455 374.623C415.919 374.583 415.919 374.583 399.596 374.574C388.306 374.568 377.016 374.561 365.726 374.548C357.505 374.538 349.284 374.531 341.063 374.529C336.707 374.528 332.352 374.525 327.996 374.517C323.901 374.511 319.806 374.508 315.712 374.51C314.204 374.51 312.697 374.508 311.19 374.504C309.141 374.499 307.091 374.501 305.042 374.503C303.893 374.502 302.743 374.501 301.559 374.5C299 374.623 299 374.623 298 375.623C297.905 378.148 297.874 380.646 297.886 383.172C297.886 383.962 297.886 384.752 297.886 385.567C297.887 388.191 297.894 390.815 297.902 393.439C297.904 395.254 297.905 397.069 297.906 398.883C297.91 403.669 297.92 408.455 297.931 413.24C297.941 418.12 297.946 422.999 297.951 427.879C297.962 437.46 297.979 447.042 298 456.623Z" fill="#074139"/>
<path d="M671 672.5C673.31 672.5 675.62 672.5 678 672.5C678 696.92 678 721.34 678 746.5C702.75 746.5 727.5 746.5 753 746.5C753.04 785.581 753.04 785.581 753.049 801.904C753.055 813.194 753.062 824.484 753.075 835.774C753.085 843.995 753.092 852.216 753.094 860.437C753.095 864.792 753.098 869.148 753.106 873.504C753.112 877.599 753.115 881.693 753.113 885.788C753.113 887.296 753.115 888.803 753.119 890.31C753.124 892.359 753.122 894.408 753.12 896.457C753.121 897.607 753.122 898.756 753.123 899.941C753 902.5 753 902.5 752 903.5C749.69 903.5 747.38 903.5 745 903.5C745 854 745 804.5 745 753.5C720.58 753.5 696.16 753.5 671 753.5C671 726.77 671 700.04 671 672.5Z" fill="#074139"/>
<path d="M374 671.5C376.31 671.5 378.62 671.5 381 671.5C381 721 381 770.5 381 821.5C405.42 821.5 429.84 821.5 455 821.5C455 823.81 455 826.12 455 828.5C403.52 828.5 352.04 828.5 299 828.5C299 826.19 299 823.88 299 821.5C323.42 821.17 347.84 820.84 373 820.5C373.33 771.33 373.66 722.16 374 671.5Z" fill="#074139"/>
<path d="M149 75.5C151.64 75.5 154.28 75.5 157 75.5C157 100.58 157 125.66 157 151.5C181.42 151.5 205.84 151.5 231 151.5C231 178.56 231 205.62 231 233.5C228.36 233.5 225.72 233.5 223 233.5C223 208.75 223 184 223 158.5C198.58 158.5 174.16 158.5 149 158.5C149 131.11 149 103.72 149 75.5Z" fill="#074139"/>
<path d="M522 672.5C549.06 672.5 576.12 672.5 604 672.5C604 674.81 604 677.12 604 679.5C579.58 679.5 555.16 679.5 530 679.5C530 703.92 530 728.34 530 753.5C502.94 753.5 475.88 753.5 448 753.5C448 751.52 448 749.54 448 747.5C472.42 747.17 496.84 746.84 522 746.5C522 722.08 522 697.66 522 672.5Z" fill="#074139"/>
<path d="M223 448.5C225.64 448.5 228.28 448.5 231 448.5C231 500.31 231 552.12 231 605.5C228.36 605.5 225.72 605.5 223 605.5C223 553.69 223 501.88 223 448.5Z" fill="#074139"/>
<path d="M522 448.5C524.64 448.5 527.28 448.5 530 448.5C530 500.31 530 552.12 530 605.5C527.36 605.5 524.72 605.5 522 605.5C522 553.69 522 501.88 522 448.5Z" fill="#074139"/>
<path d="M298 523.5C349.81 523.5 401.62 523.5 455 523.5C455 525.81 455 528.12 455 530.5C403.19 530.5 351.38 530.5 298 530.5C298 528.19 298 525.88 298 523.5Z" fill="#074139"/>
<path d="M373 299.5C375.64 299.5 378.28 299.5 381 299.5C381 326.89 381 354.28 381 382.5C378.36 382.5 375.72 382.5 373 382.5C373 355.11 373 327.72 373 299.5Z" fill="#074139"/>
<path d="M671 259C673.31 259 675.62 259 678 259C678 285.73 678 312.46 678 340C675.69 340 673.38 340 671 340C671 313.27 671 286.54 671 259Z" fill="#074139"/>
<path d="M300 603.5C304.875 605.375 304.875 605.375 306 606.5C306.094 608.77 306.117 611.043 306.114 613.315C306.114 614.027 306.114 614.739 306.114 615.473C306.113 617.837 306.105 620.202 306.098 622.566C306.096 624.202 306.094 625.837 306.093 627.472C306.09 631.784 306.08 636.097 306.069 640.409C306.058 644.806 306.054 649.203 306.049 653.6C306.038 662.233 306.021 670.867 306 679.5C303.36 679.5 300.72 679.5 298 679.5C298.12 672.695 298.245 665.889 298.372 659.084C298.415 656.781 298.457 654.478 298.497 652.176C298.785 635.939 299.279 619.723 300 603.5Z" fill="#074139"/>
<path d="M298 374.5C300.64 374.5 303.28 374.5 306 374.5C306 400.9 306 427.3 306 454.5C305.01 454.5 304.02 454.5 303 454.5C303 453.84 303 453.18 303 452.5C301.68 452.17 300.36 451.84 299 451.5C298.67 426.09 298.34 400.68 298 374.5Z" fill="#074139"/>
<path d="M223 151.5C225.31 151.5 227.62 151.5 230 151.5C230 178.23 230 204.96 230 232.5C228.02 232.5 226.04 232.5 224 232.5C223.67 205.77 223.34 179.04 223 151.5Z" fill="#074139"/>
</g>
<defs>
<clipPath id="clip0_3025_1631">
<rect width="827" height="1052" fill="white"/>
</clipPath>
</defs>
</svg>
